<?xml version="1.0" standalone="no"?>
<!DOCTYPE svg PUBLIC "-//W3C//DTD SVG 20010904//EN"
 "http://www.w3.org/TR/2001/REC-SVG-20010904/DTD/svg10.dtd">
<svg version="1.0" xmlns="http://www.w3.org/2000/svg"
 width="760.000000pt" height="760.000000pt" viewBox="0 0 760.000000 760.000000"
 preserveAspectRatio="xMidYMid meet">
<metadata>
Created by potrace 1.14, written by Peter Selinger 2001-2017
</metadata>
<g transform="translate(0.000000,760.000000) scale(0.100000,-0.100000)"
fill="#000000" stroke="none">
<path d="M6039 6296 c-2 -3 -38 -7 -79 -10 -41 -3 -100 -8 -130 -10 -80 -7
-197 -17 -255 -21 -69 -5 -191 -15 -245 -20 -25 -2 -81 -7 -125 -10 -44 -4
-98 -8 -120 -10 -22 -3 -78 -7 -125 -10 -47 -3 -101 -8 -120 -10 -19 -2 -73
-7 -120 -10 -136 -10 -131 -7 -136 -57 -2 -18 -9 -58 -16 -88 -6 -30 -11 -58
-10 -63 1 -4 -2 -26 -7 -50 -5 -23 -12 -62 -15 -87 -3 -25 -8 -56 -11 -70 -2
-13 -7 -40 -10 -60 -3 -20 -7 -45 -9 -55 -7 -36 -17 -99 -21 -135 -2 -19 -9
-60 -15 -90 -6 -30 -13 -73 -16 -95 -3 -22 -9 -62 -14 -90 -6 -27 -12 -66 -14
-85 -3 -19 -7 -46 -10 -60 -3 -14 -7 -41 -10 -60 -3 -19 -7 -44 -10 -55 -2
-11 -7 -40 -10 -65 -3 -25 -8 -55 -10 -66 -6 -32 -17 -95 -21 -129 -3 -16 -7
-43 -11 -58 -3 -16 -7 -38 -9 -50 -6 -52 -17 -117 -30 -192 -8 -44 -17 -98
-20 -120 -4 -22 -11 -67 -16 -100 -5 -33 -12 -82 -16 -108 l-5 -49 43 6 c24 3
80 8 124 11 115 9 173 13 235 20 30 3 87 7 125 10 39 2 95 7 125 9 30 3 89 8
130 11 41 3 97 8 124 10 27 3 81 7 120 10 39 3 91 7 116 10 52 5 195 16 259
19 49 2 57 11 66 76 3 25 8 52 10 60 5 17 12 60 20 111 2 19 9 61 15 94 14 82
14 83 -17 79 -16 -1 -64 -6 -108 -9 -44 -3 -100 -8 -125 -10 -25 -2 -83 -7
-130 -10 -47 -4 -103 -8 -125 -10 -22 -2 -74 -6 -115 -10 -140 -11 -175 -14
-175 -15 0 -1 -33 -3 -72 -6 l-73 -4 6 37 c10 70 13 88 28 178 8 50 18 110 22
135 10 69 10 69 17 76 4 4 25 8 46 10 22 1 73 5 113 9 40 3 100 8 133 10 33 3
83 7 110 10 45 4 83 7 240 20 28 2 79 6 115 9 36 3 94 8 130 11 36 3 90 7 120
10 30 3 84 7 120 10 36 2 90 6 120 9 57 6 135 12 255 21 66 5 130 11 235 20
25 2 81 7 125 10 44 4 83 9 87 11 28 17 -7 -22 -115 -129 -67 -67 -146 -149
-175 -181 l-52 -60 44 -40 c122 -114 220 -201 229 -205 5 -2 23 12 39 30 36
41 173 190 246 267 30 32 84 91 122 132 37 41 83 91 101 111 19 20 81 87 139
149 58 62 122 131 142 154 l37 41 -64 60 c-93 87 -217 201 -242 222 -11 10
-67 61 -123 113 -113 105 -117 109 -250 230 -51 47 -104 96 -118 109 l-25 24
-56 -60 c-31 -33 -93 -99 -139 -148 l-82 -89 92 -87 c51 -49 130 -116 175
-151 45 -35 82 -66 82 -70 1 -4 -7 -6 -16 -6 -10 0 -53 -2 -97 -6 -86 -7 -130
-11 -251 -21 -44 -3 -100 -8 -125 -10 -25 -2 -76 -6 -115 -9 -38 -3 -95 -8
-125 -11 -30 -3 -89 -7 -130 -10 -41 -3 -97 -8 -124 -11 -26 -2 -78 -7 -115
-9 -36 -3 -88 -7 -116 -10 -27 -2 -84 -7 -125 -10 -109 -8 -178 -14 -240 -19
-30 -3 -91 -8 -135 -11 -44 -4 -102 -9 -128 -11 -49 -4 -49 -4 -43 23 3 16 8
46 11 68 3 22 8 51 10 65 3 14 8 42 11 64 3 21 7 48 10 59 2 12 6 37 9 57 8
52 14 82 18 86 1 2 39 6 82 9 44 3 100 8 125 10 42 5 101 9 247 20 32 2 90 7
128 10 73 7 87 8 244 20 127 10 124 9 127 31 2 10 5 33 8 49 3 17 8 48 11 70
3 22 10 63 15 90 31 164 35 207 19 191z"/>
<path d="M4207 6144 c-2 -2 -73 -8 -227 -20 -41 -4 -86 -7 -100 -9 -14 -1 -44
-3 -67 -3 -45 -2 -40 7 -59 -110 -2 -12 -8 -48 -14 -80 -5 -31 -12 -73 -14
-92 -3 -19 -7 -46 -10 -60 -3 -14 -7 -43 -11 -65 -3 -22 -10 -69 -16 -105 -6
-36 -13 -78 -16 -95 -2 -16 -20 -124 -39 -240 -19 -115 -36 -223 -39 -240 -21
-156 -27 -167 -58 -107 -29 56 -100 188 -117 217 -10 17 -34 59 -53 95 -18 36
-49 92 -67 125 -18 33 -45 83 -60 110 -15 28 -57 106 -95 175 -37 69 -80 148
-95 175 -15 28 -46 86 -70 130 -24 44 -48 83 -54 87 -6 4 -26 5 -46 3 -35 -4
-112 -11 -250 -21 -41 -3 -87 -7 -102 -8 -35 -3 -35 -3 -42 -51 -4 -22 -8 -47
-11 -55 -2 -8 -6 -35 -9 -60 -3 -25 -8 -54 -10 -65 -2 -11 -7 -40 -11 -65 -4
-25 -9 -52 -10 -60 -2 -8 -6 -35 -9 -60 -3 -25 -8 -56 -11 -70 -3 -14 -7 -41
-10 -60 -3 -19 -7 -46 -9 -60 -9 -46 -25 -145 -31 -183 -3 -21 -16 -104 -30
-185 -14 -81 -28 -161 -30 -179 -2 -18 -9 -58 -14 -90 -6 -32 -13 -76 -16 -98
-3 -22 -11 -67 -17 -100 -5 -33 -11 -69 -13 -80 -2 -11 -6 -38 -9 -60 -3 -22
-8 -51 -11 -65 -3 -14 -8 -45 -11 -70 -3 -25 -8 -54 -10 -65 -8 -38 -25 -140
-30 -175 -2 -19 -7 -46 -9 -59 -2 -13 -7 -44 -11 -68 l-6 -44 78 6 c97 8 150
12 234 20 36 3 92 7 124 10 33 2 63 10 67 17 4 7 11 35 15 63 3 27 8 59 10 70
3 11 7 38 9 60 3 22 7 47 10 55 2 8 7 33 10 55 3 23 8 52 10 65 3 14 7 39 9
55 5 34 24 154 32 200 7 39 71 428 79 480 14 89 17 100 24 108 4 4 31 -37 61
-90 29 -54 63 -116 75 -138 12 -22 80 -146 150 -275 70 -129 138 -253 150
-275 12 -22 36 -65 52 -95 16 -30 50 -91 74 -135 24 -44 51 -93 60 -110 15
-27 21 -30 65 -29 51 1 220 14 264 19 14 2 41 4 60 4 48 2 59 11 65 56 4 22 8
47 10 55 2 8 7 35 10 60 3 25 10 68 15 95 5 28 12 68 15 90 3 23 7 50 9 62 10
50 18 100 21 128 2 17 6 41 9 55 5 22 15 77 21 125 2 11 6 36 10 55 10 52 15
82 19 115 3 28 13 93 22 140 2 11 16 92 30 180 14 88 27 171 30 185 2 14 7 41
10 60 2 19 9 58 14 85 14 75 32 191 46 285 2 19 7 43 10 53 3 9 7 34 9 55 3
20 7 48 10 62 3 14 8 45 11 70 3 24 7 47 10 51 3 6 -63 8 -69 3z"/>
<path d="M1168 5924 c-2 -1 -25 -5 -53 -8 -71 -8 -92 -13 -189 -41 -72 -21
-230 -88 -246 -105 -3 -3 -21 -14 -40 -24 -118 -65 -247 -189 -378 -361 -4 -5
-21 -32 -38 -60 -104 -174 -168 -370 -203 -617 -10 -69 -8 -316 3 -363 30
-131 79 -259 112 -286 8 -6 14 -15 14 -20 0 -9 19 -34 60 -78 36 -37 130 -114
130 -105 0 4 8 1 18 -7 49 -40 168 -81 277 -97 94 -13 358 -4 386 14 5 3 21 7
36 9 99 13 344 126 440 202 80 64 165 145 213 206 30 37 63 77 73 88 9 10 17
21 17 24 0 2 15 28 33 57 175 278 255 734 181 1034 -69 283 -267 467 -569 530
-29 6 -272 13 -277 8z m153 -465 c13 -7 26 -11 27 -9 2 1 23 -11 47 -28 92
-65 134 -177 133 -349 -1 -59 -4 -123 -9 -142 -4 -20 -15 -72 -24 -116 -30
-143 -88 -277 -159 -370 -55 -71 -70 -86 -128 -132 -108 -83 -232 -123 -366
-119 -100 4 -126 11 -176 46 -112 79 -145 162 -141 352 3 125 20 229 56 350
20 69 75 198 87 208 4 3 14 19 22 35 8 17 51 66 95 111 90 91 184 144 295 168
75 17 207 14 241 -5z"/>
<path d="M6577 3784 c-1 -1 -42 -5 -92 -8 -49 -4 -112 -9 -140 -12 -27 -3 -75
-7 -105 -8 -30 -2 -64 -6 -75 -10 -11 -4 -59 -69 -110 -152 -204 -328 -319
-509 -327 -512 -5 -2 -8 -8 -8 -13 0 -12 -140 -232 -154 -241 -15 -10 -24 -1
-35 35 -5 18 -42 124 -81 237 -129 368 -141 404 -168 488 l-27 84 -100 -7
c-55 -3 -120 -8 -145 -10 -25 -2 -76 -6 -115 -10 -168 -13 -199 -16 -203 -20
-4 -4 57 -166 93 -250 7 -16 25 -61 40 -100 15 -38 31 -79 36 -90 4 -11 40
-101 79 -200 39 -99 74 -189 79 -200 5 -11 21 -51 36 -90 15 -38 34 -83 40
-100 7 -16 38 -94 69 -172 56 -143 58 -150 42 -240 -11 -63 -16 -88 -21 -113
-2 -13 -7 -42 -10 -65 -8 -53 -14 -88 -25 -155 -5 -30 -12 -71 -15 -90 -3 -19
-7 -46 -10 -60 -3 -14 -7 -38 -10 -55 -3 -16 -7 -41 -10 -54 l-4 -23 87 6 c48
4 107 9 132 11 25 2 81 7 125 10 99 7 157 13 160 17 2 2 6 23 10 48 9 57 10
64 30 185 9 55 18 113 20 128 2 16 6 40 9 55 3 15 8 43 11 62 3 19 10 60 15
90 5 30 12 73 15 95 6 40 31 79 379 595 61 91 114 167 119 168 4 2 7 8 7 13 0
6 18 34 40 64 22 30 40 58 40 64 0 5 3 11 8 13 10 5 52 66 52 77 0 5 3 11 8
13 4 2 54 73 111 158 58 85 108 157 113 158 4 2 8 8 8 13 0 11 100 160 115
172 6 4 -23 6 -63 5 -40 -1 -74 -3 -75 -4z"/>
<path d="M4148 3585 c-2 -1 -43 -6 -93 -9 -218 -16 -273 -21 -390 -33 -33 -3
-68 -5 -78 -5 -14 1 -36 -36 -91 -151 -94 -194 -175 -363 -267 -552 -40 -82
-72 -153 -71 -157 1 -5 -3 -8 -8 -8 -6 0 -10 -4 -10 -9 0 -5 -37 -85 -81 -178
-45 -92 -110 -226 -144 -298 -110 -229 -190 -395 -294 -609 -55 -114 -101
-212 -101 -216 0 -4 12 -6 28 -4 15 2 56 6 92 9 36 3 88 7 115 9 71 7 204 18
245 20 60 4 53 -7 156 211 25 55 47 106 47 113 0 6 3 12 6 12 3 0 17 27 31 60
14 33 32 62 40 64 8 3 51 8 95 11 44 3 98 8 120 10 22 2 81 7 130 10 50 4 106
8 125 10 19 2 73 6 119 10 47 4 93 8 103 10 10 2 18 1 19 -3 0 -4 2 -14 4 -22
13 -66 24 -163 20 -171 -4 -5 -2 -9 2 -9 5 0 10 -15 11 -33 1 -18 5 -44 7 -57
3 -14 8 -47 11 -75 4 -27 8 -53 10 -56 4 -7 38 -5 164 6 41 4 98 8 125 10 28
1 70 5 95 9 25 3 69 6 98 7 29 2 55 5 57 9 2 3 -7 67 -20 143 -13 75 -26 152
-29 170 -3 17 -8 43 -12 57 -3 14 -6 32 -6 40 0 8 -4 31 -8 50 -5 19 -11 53
-15 75 -3 22 -15 94 -26 160 -12 66 -23 134 -25 150 -2 17 -8 50 -14 75 -5 25
-12 61 -15 80 -3 19 -7 46 -10 60 -2 14 -7 42 -10 64 -3 21 -7 41 -9 45 -2 3
-7 33 -11 66 -3 32 -8 62 -10 65 -2 3 -7 26 -10 50 -13 78 -14 85 -18 105 -3
11 -8 42 -11 68 -4 27 -10 59 -12 70 -5 25 -45 252 -49 283 -2 11 -8 47 -15
80 -7 32 -13 68 -14 79 -1 17 -8 20 -48 21 -26 1 -49 0 -50 -1z m-317 -567 c0
-7 2 -22 4 -33 1 -11 6 -42 9 -70 4 -27 9 -57 11 -65 2 -8 7 -37 10 -65 4 -27
8 -61 11 -75 2 -14 7 -45 10 -70 3 -25 8 -54 10 -65 2 -11 7 -40 10 -65 3 -25
7 -56 10 -70 2 -14 6 -38 9 -55 3 -16 8 -42 11 -57 3 -16 2 -28 -3 -29 -4 0
-16 -2 -25 -4 -9 -2 -56 -6 -105 -10 -91 -6 -108 -8 -255 -20 -49 -4 -88 -5
-88 -2 0 5 54 125 105 232 18 39 47 99 63 135 67 146 110 239 147 318 36 77
54 99 56 70z"/>
<path d="M2886 3482 c-2 -1 -30 -5 -62 -7 -33 -3 -88 -7 -124 -10 -36 -3 -97
-8 -136 -10 -106 -8 -145 -13 -148 -16 -2 -2 -56 -141 -120 -309 -64 -168
-121 -314 -125 -325 -5 -11 -23 -58 -41 -105 -17 -47 -39 -103 -48 -125 -10
-21 -17 -42 -17 -45 0 -5 -14 -42 -40 -105 -7 -16 -18 -43 -24 -60 -6 -16 -16
-43 -22 -60 -7 -16 -13 -34 -15 -40 -15 -49 -94 -240 -101 -242 -5 -2 -10 14
-11 36 -2 21 -5 49 -7 62 -3 13 -7 55 -10 94 -3 38 -8 86 -10 105 -3 19 -7 60
-10 90 -8 91 -16 174 -20 200 -2 14 -7 63 -10 110 -4 47 -9 92 -10 101 -2 8
-6 51 -10 95 -3 43 -8 90 -10 104 -2 14 -7 57 -10 95 -3 39 -8 88 -10 110 -3
22 -7 64 -10 94 -7 66 -10 71 -38 65 -12 -3 -49 -6 -82 -8 -33 -2 -94 -7 -135
-11 -85 -9 -132 -12 -175 -14 -27 -1 -33 -7 -55 -58 -14 -32 -25 -60 -26 -63
0 -3 -5 -16 -11 -30 -6 -14 -23 -54 -37 -90 -15 -36 -32 -76 -38 -90 -33 -75
-260 -625 -262 -635 -2 -5 -12 -30 -23 -55 -11 -25 -53 -125 -93 -222 -40 -98
-78 -178 -84 -178 -6 0 -11 15 -12 33 -1 36 -12 231 -19 322 -2 33 -7 101 -10
150 -4 50 -8 122 -10 160 -2 39 -6 104 -9 145 -3 41 -8 111 -11 155 -6 96 -15
224 -19 285 -2 25 -4 60 -5 77 l-1 33 -63 -5 c-34 -2 -62 -4 -62 -5 0 0 -29
-3 -65 -5 -36 -2 -90 -6 -120 -9 -161 -14 -217 -19 -233 -18 -16 1 -17 -5 -12
-51 4 -29 9 -68 11 -87 2 -19 7 -53 10 -75 4 -22 7 -51 9 -65 3 -33 25 -205
31 -250 10 -71 13 -96 19 -150 3 -30 7 -68 10 -85 2 -16 7 -48 9 -70 3 -22 8
-56 11 -77 3 -20 8 -54 10 -75 2 -21 7 -58 10 -83 3 -25 8 -61 9 -80 3 -35 13
-109 21 -165 2 -16 7 -52 10 -80 3 -27 8 -63 10 -80 3 -16 7 -52 10 -80 3 -27
8 -66 10 -85 9 -61 16 -114 20 -155 2 -22 6 -49 8 -60 3 -11 8 -51 12 -90 4
-38 9 -79 11 -90 1 -11 3 -26 3 -33 1 -9 15 -11 53 -7 71 6 145 13 248 21 47
3 96 8 110 9 14 2 37 3 51 4 27 1 33 10 86 131 9 19 33 72 54 118 22 46 39 85
39 88 0 3 12 31 26 62 15 31 44 98 66 147 22 50 50 110 61 135 11 25 21 47 22
50 1 3 15 33 30 67 15 34 74 164 130 289 92 207 120 258 122 222 1 -17 9 -76
22 -178 14 -99 19 -140 26 -195 13 -109 25 -192 29 -210 2 -12 7 -50 10 -86 4
-36 9 -79 12 -95 3 -16 7 -45 8 -64 2 -19 6 -51 9 -70 6 -31 13 -88 22 -160 8
-68 16 -127 20 -145 2 -11 4 -25 4 -32 1 -6 9 -10 19 -8 9 1 58 6 107 10 50 4
113 9 140 11 28 2 86 7 130 10 90 6 96 10 129 92 11 26 31 74 46 107 15 33
109 247 209 475 100 228 188 429 195 445 23 50 51 114 111 250 31 72 68 154
81 183 13 29 24 55 24 57 0 2 15 37 34 77 41 89 216 487 216 492 0 4 -80 2
-84 -2z"/>
</g>
</svg>
