<?xml version="1.0" encoding="utf-8"?>
<svg viewBox="-29.72 -32.43 380.361 265.447" width="380.361" height="265.447" xmlns="http://www.w3.org/2000/svg">
  <defs>
    <style>.a{fill:#fff}</style>
  </defs>
  <g style="" transform="matrix(0.969716, -0.079426, 0, 0.969716, -30.263605, -1.522436)">
    <g transform="matrix(1, 0, 0, 1, -392.339325, 130.909561)">
      <title>WAY</title>
      <path fill-rule="evenodd" class="a" d="M 431.6 111 L 406.4 111 L 392.9 2.8 L 421.8 2.8 L 426.4 73.7 L 427.3 73.7 L 457.7 2.8 L 481.2 2.8 L 488.2 73.9 L 489 73.9 L 517.2 2.8 L 546 2.8 L 496.6 111 L 471.4 111 L 462.9 45.4 L 462.1 45.4 L 431.6 111 Z"/>
      <path fill-rule="evenodd" class="a" d="M 662.2 74.8 L 634.5 2.8 L 663.7 2.8 L 679 48.1 L 680.2 48.1 L 710.4 2.8 L 739.6 2.8 L 688.1 74.8 L 682.1 111 L 656.1 111 L 662.2 74.8 Z"/>
      <path fill-rule="evenodd" class="a" d="M 561.4 88.3 L 550.4 111 L 522.3 111 L 576.8 2.8 L 611.6 2.8 L 630.1 111 L 602 111 L 598.7 88.3 L 561.4 88.3 Z M 589.4 30 L 570.9 68.4 L 595.9 68.4 L 590.2 30 L 589.4 30 Z"/>
    </g>
    <path fill-rule="evenodd" class="a" d="M 104.5 57.6 C 102.567 69.267 98.7 79.1 92.9 87.1 C 87.167 95.1 80.167 101.167 71.9 105.3 C 63.7 109.433 54.867 111.5 45.4 111.5 C 35.4 111.5 26.767 109.267 19.5 104.8 C 12.233 100.4 6.933 93.933 3.6 85.4 C 0.333 76.933 -0.3 66.633 1.7 54.5 C 3.633 42.833 7.467 32.967 13.2 24.9 C 18.933 16.833 25.933 10.733 34.2 6.6 C 42.533 2.4 51.467 0.3 61 0.3 C 70.933 0.3 79.533 2.533 86.8 7 C 94 11.467 99.267 17.967 102.6 26.5 C 105.867 35.033 106.5 45.4 104.5 57.6 Z M 78.3 54.5 C 79.967 44.3 79.167 36.533 75.9 31.2 C 72.7 25.933 67.4 23.3 60 23.3 C 51.733 23.3 44.733 26.3 39 32.3 C 33.333 38.3 29.633 46.733 27.9 57.6 C 26.033 67.867 26.8 75.6 30.2 80.8 C 33.667 86 39.033 88.6 46.3 88.6 C 54.5 88.6 61.433 85.633 67.1 79.7 C 72.767 73.833 76.5 65.433 78.3 54.5 Z M 194.9 1.8 L 221 1.8 L 203 110 L 180.9 110 L 148.3 47.6 L 147.5 47.6 L 137.1 110 L 111 110 L 128.9 1.8 L 151.4 1.8 L 183.8 64.1 L 184.7 64.1 L 194.9 1.8 Z M 294.8 110 L 219.4 110 L 237.3 1.8 L 312.8 1.8 L 309.2 23.1 L 259.9 23.1 L 256.3 45.3 L 252.7 66.6 L 249.1 88.8 L 298.4 88.8 L 294.8 110 Z"/>
    <path class="a" d="M 392.8 55.8 L 350.2 98.4 L 335.9 84.1 L 346.6 73.4 L 354.5 66.7 L 340 66.7 L 249.113 66.7 L 254.896 44.9 L 340 44.9 L 354.5 44.9 L 346.6 38.1 L 335.9 27.4 L 350.2 13.2 L 392.8 55.8 Z"/>
  </g>
</svg>